<svg width="500" height="500" viewBox="0 0 500 500" fill="none" xmlns="http://www.w3.org/2000/svg">
<path d="M360.156 15.625L271.875 147.656H315.625L414.062 15.625H360.156Z" fill="#428BC1"/>
<path d="M315.625 15.625L228.125 147.656H271.875L360.156 15.625H315.625Z" fill="#E8E8E8"/>
<path d="M271.875 15.625L184.375 147.656H228.125L315.625 15.625H271.875Z" fill="#ED4C5C"/>
<path d="M250 484.375C338.883 484.375 410.937 412.321 410.937 323.438C410.937 234.554 338.883 162.5 250 162.5C161.117 162.5 89.0625 234.554 89.0625 323.438C89.0625 412.321 161.117 484.375 250 484.375Z" fill="#FFCE31"/>
<path d="M169.531 117.969C165.625 117.969 162.5 121.094 162.5 125V190.625C162.5 194.531 165.625 197.656 169.531 197.656H330.469C334.375 197.656 337.5 194.531 337.5 190.625V125C337.5 121.094 334.375 117.969 330.469 117.969H169.531ZM323.438 169.531C323.438 173.438 320.313 176.562 316.406 176.562H184.375C180.469 176.562 177.344 173.438 177.344 169.531V139.844C177.344 135.937 180.469 132.812 184.375 132.812H316.406C320.313 132.812 323.438 135.937 323.438 139.844V169.531Z" fill="#FFCE31"/>
<path opacity="0.5" d="M111.719 342.187C111.719 254.687 178.906 183.594 264.844 177.344C260.938 177.344 256.25 176.562 252.344 176.562C170.312 176.562 103.906 242.969 103.906 325.781C103.906 350 110.156 373.438 120.312 393.75C114.844 377.344 111.719 360.156 111.719 342.187Z" fill="#89664C"/>
<path opacity="0.33" d="M311.719 447.656C384.375 399.219 406.25 304.687 364.062 231.25L371.094 240.625C416.406 307.812 397.656 399.219 329.688 445.312C309.375 459.375 286.719 467.187 264.062 469.531C281.25 464.844 296.875 457.812 311.719 447.656Z" fill="white"/>
<path d="M184.375 147.656H228.125L139.844 15.625H85.9375L184.375 147.656Z" fill="#ED4C5C"/>
<path d="M228.125 147.656H271.875L184.375 15.625H139.844L228.125 147.656Z" fill="#E8E8E8"/>
<path opacity="0.5" d="M257.031 37.5L235.156 70.3125L286.719 147.656H315.625L323.438 136.719L257.031 37.5Z" fill="#3E4347"/>
<path d="M271.875 147.656H315.625L228.125 15.625H184.375L271.875 147.656Z" fill="#428BC1"/>
<path opacity="0.5" d="M209.375 275V282.812C217.188 282.812 224.219 281.25 231.25 278.125V267.188C225 271.875 217.969 274.219 209.375 275ZM260.938 224.219H267.969V392.969H260.938V224.219ZM290.625 400V421.875H209.375V429.687H297.656V400H290.625Z" fill="#89664C"/>
<path opacity="0.33" d="M267.969 392.969H289.844V400H267.969V392.969ZM239.063 224.219H260.938V217.188H231.25C231.25 233.594 217.969 246.875 201.562 246.875V275.781C203.906 275.781 206.25 275.781 208.594 275V253.125C225.781 253.906 239.063 240.625 239.063 224.219ZM239.063 400V275C236.719 276.563 234.375 277.344 232.031 278.906V392.969H202.344V421.875H209.375V400H239.063Z" fill="white"/>
</svg>
