<svg width="500" height="500" viewBox="0 0 500 500" fill="none" xmlns="http://www.w3.org/2000/svg">
<path d="M360.156 15.625L271.875 147.656H315.625L414.062 15.625H360.156Z" fill="#428BC1"/>
<path d="M315.625 15.625L228.125 147.656H271.875L360.156 15.625H315.625Z" fill="#E8E8E8"/>
<path d="M271.875 15.625L184.375 147.656H228.125L315.625 15.625H271.875Z" fill="#ED4C5C"/>
<path d="M250 484.375C338.883 484.375 410.937 412.321 410.937 323.438C410.937 234.554 338.883 162.5 250 162.5C161.117 162.5 89.0625 234.554 89.0625 323.438C89.0625 412.321 161.117 484.375 250 484.375Z" fill="#B2C1C0"/>
<path d="M169.531 117.969C165.625 117.969 162.5 121.094 162.5 125V190.625C162.5 194.531 165.625 197.656 169.531 197.656H330.469C334.375 197.656 337.5 194.531 337.5 190.625V125C337.5 121.094 334.375 117.969 330.469 117.969H169.531ZM323.438 169.531C323.438 173.438 320.313 176.562 316.406 176.562H184.375C180.469 176.562 177.344 173.438 177.344 169.531V139.844C177.344 135.937 180.469 132.812 184.375 132.812H316.406C320.313 132.812 323.438 135.937 323.438 139.844V169.531Z" fill="#B2C1C0"/>
<path opacity="0.5" d="M111.719 342.187C111.719 254.687 178.906 183.594 264.844 177.344C260.938 177.344 256.25 176.562 252.344 176.562C170.312 176.562 103.906 242.969 103.906 325.781C103.906 350 110.156 373.438 120.312 393.75C114.844 377.344 111.719 360.156 111.719 342.187Z" fill="#3E4347"/>
<path opacity="0.33" d="M311.719 447.656C384.375 399.219 406.25 304.687 364.062 231.25C366.406 234.375 368.75 237.5 371.094 241.406C416.406 308.594 397.656 400 329.688 446.094C309.375 460.156 286.719 467.969 264.062 470.313C281.25 464.844 296.875 457.812 311.719 447.656Z" fill="white"/>
<path d="M184.375 147.656H228.125L139.844 15.625H85.9375L184.375 147.656Z" fill="#ED4C5C"/>
<path d="M228.125 147.656H271.875L184.375 15.625H139.844L228.125 147.656Z" fill="#E8E8E8"/>
<path opacity="0.5" d="M257.031 37.5L235.156 70.3125L286.719 147.656H315.625L323.438 136.719L257.031 37.5Z" fill="#3E4347"/>
<path d="M271.875 147.656H315.625L228.125 15.625H184.375L271.875 147.656Z" fill="#428BC1"/>
<path opacity="0.5" d="M246.094 246.094C229.688 246.094 216.406 259.375 216.406 275H195.313C195.313 277.344 194.531 279.687 194.531 282.031H224.219C224.219 265.625 237.5 252.344 253.906 252.344C260.156 252.344 265.625 254.687 270.312 257.812C264.844 251.562 256.25 246.094 246.094 246.094ZM304.688 421.875H195.313V429.688H312.5V400H304.688V421.875ZM246.094 334.375C229.688 334.375 216.406 347.656 216.406 364.062V393.75H223.438V371.875C223.438 355.469 236.719 342.187 253.125 342.187C285.156 342.187 311.719 315.625 311.719 283.594C311.719 265.625 303.906 249.219 290.625 238.281C299.219 248.437 304.688 261.719 304.688 275.781C304.688 307.812 278.906 334.375 246.094 334.375Z" fill="#3E4347"/>
<path opacity="0.33" d="M224.219 392.969H304.688V400H224.219V392.969ZM253.906 312.5C270.312 312.5 283.594 299.219 283.594 282.813C283.594 272.656 278.906 264.062 271.094 258.594C274.219 263.281 276.563 268.75 276.563 275C276.563 291.406 263.281 304.688 246.875 304.688C214.844 304.688 188.281 331.25 188.281 363.281V421.875H195.312V370.313C195.312 338.281 221.094 312.5 253.906 312.5ZM253.906 224.219C267.969 224.219 281.25 229.688 291.406 238.281C280.469 225.781 264.844 217.188 246.094 217.188C214.063 217.188 187.5 243.75 187.5 275.781H195.312C199.219 246.875 223.437 224.219 253.906 224.219Z" fill="white"/>
</svg>
