<svg width="500" height="500" viewBox="0 0 500 500" fill="none" xmlns="http://www.w3.org/2000/svg">
<path d="M360.156 15.625L271.875 147.656H315.625L414.062 15.625H360.156Z" fill="#428BC1"/>
<path d="M315.625 15.625L228.125 147.656H271.875L360.156 15.625H315.625Z" fill="#E8E8E8"/>
<path d="M271.875 15.625L184.375 147.656H228.125L315.625 15.625H271.875Z" fill="#ED4C5C"/>
<path d="M250 484.375C338.883 484.375 410.937 412.321 410.937 323.438C410.937 234.554 338.883 162.5 250 162.5C161.117 162.5 89.0625 234.554 89.0625 323.438C89.0625 412.321 161.117 484.375 250 484.375Z" fill="#D3976E"/>
<path d="M169.531 117.969C165.625 117.969 162.5 121.094 162.5 125V190.625C162.5 194.531 165.625 197.656 169.531 197.656H330.469C334.375 197.656 337.5 194.531 337.5 190.625V125C337.5 121.094 334.375 117.969 330.469 117.969H169.531ZM323.438 169.531C323.438 173.438 320.313 176.562 316.406 176.562H184.375C180.469 176.562 177.344 173.438 177.344 169.531V139.844C177.344 135.937 180.469 132.812 184.375 132.812H316.406C320.313 132.812 323.438 135.937 323.438 139.844V169.531Z" fill="#D3976E"/>
<path opacity="0.5" d="M111.719 342.187C111.719 254.687 178.906 183.594 264.844 177.344C260.938 177.344 256.25 176.562 252.344 176.562C170.312 176.562 103.906 242.969 103.906 325.781C103.906 350 110.156 373.438 120.312 393.75C114.844 377.344 111.719 360.156 111.719 342.187Z" fill="#3E4347"/>
<path opacity="0.33" d="M311.719 447.656C384.375 399.219 406.25 304.687 364.062 231.25L371.094 240.625C416.406 307.812 397.656 399.219 329.688 445.312C309.375 459.375 286.719 467.187 264.062 469.531C281.25 464.844 296.875 457.812 311.719 447.656Z" fill="white"/>
<path d="M184.375 147.656H228.125L139.844 15.625H85.9375L184.375 147.656Z" fill="#ED4C5C"/>
<path d="M228.125 147.656H271.875L184.375 15.625H139.844L228.125 147.656Z" fill="#E8E8E8"/>
<path opacity="0.5" d="M257.031 37.5L235.156 70.3125L286.719 147.656H315.625L323.438 136.719L257.031 37.5Z" fill="#3E4347"/>
<path d="M271.875 147.656H315.625L228.125 15.625H184.375L271.875 147.656Z" fill="#428BC1"/>
<path opacity="0.5" d="M246.094 246.094C229.688 246.094 216.406 259.375 216.406 275H195.313C195.313 277.344 194.531 279.687 194.531 282.031H224.219C224.219 265.625 237.5 252.344 253.906 252.344C260.156 252.344 265.625 254.688 270.312 257.813C264.844 251.563 256.25 246.094 246.094 246.094ZM292.188 326.562C304.688 315.625 312.5 300 312.5 282.813C312.5 264.844 304.687 248.437 291.406 237.5C300 247.656 305.469 260.938 305.469 275C305.469 292.188 297.656 308.594 285.156 318.75C297.656 329.687 305.469 345.313 305.469 362.5C305.469 394.531 278.906 421.094 246.875 421.094C232.813 421.094 219.531 415.625 209.375 407.031C220.312 419.531 235.937 428.125 254.687 428.125C286.719 428.125 313.281 401.562 313.281 369.531C312.5 353.125 304.688 337.5 292.188 326.562Z" fill="#3E4347"/>
<path opacity="0.33" d="M253.906 224.219C267.969 224.219 281.25 229.688 291.406 238.281C280.469 225.781 264.844 217.188 246.094 217.188C214.063 217.188 187.5 243.75 187.5 275.781H195.312C199.219 246.875 223.437 224.219 253.906 224.219ZM282.813 282.813C282.813 272.656 278.125 264.062 270.312 258.594C273.437 263.281 275.781 268.75 275.781 275C275.781 291.406 262.5 304.688 246.094 304.688V334.375C248.438 334.375 250.781 335.156 253.125 335.156V312.5C269.531 312.5 282.813 299.219 282.813 282.813ZM253.906 400C270.312 400 283.594 386.719 283.594 370.313C283.594 360.156 278.906 351.562 271.094 346.094C274.219 350.781 276.563 356.25 276.563 362.5C276.563 378.906 263.281 392.188 246.875 392.188C240.625 392.188 235.156 389.844 230.469 386.719C235.156 395.313 243.75 400 253.906 400ZM217.969 371.094C217.187 368.75 217.187 366.406 217.187 364.062H187.5C187.5 382.031 195.313 398.438 208.594 409.375C200 399.219 194.531 385.937 194.531 371.875L217.969 371.094Z" fill="white"/>
</svg>
